<svg id="Layer_1" xmlns="http://www.w3.org/2000/svg" width="500" height="500" viewBox="0 0 500 500"><path d="M415.55 228.828H299.29c7.662-20.12 15.79-42.438 24.096-66.658 3.37-8.756 5.236-18.264 5.236-28.212 0-43.422-35.2-78.623-78.626-78.623-43.417 0-78.623 35.2-78.623 78.623 0 9.95 1.866 19.457 5.236 28.212 8.3 24.22 16.433 46.538 24.095 66.658H84.445L0 444.666h500l-84.45-215.838zM249.996 102.272c18.262 0 33.067 14.8 33.067 33.065 0 18.264-14.806 33.07-33.067 33.07-18.258 0-33.064-14.807-33.064-33.07 0-18.264 14.806-33.065 33.064-33.065zM116.97 276.476h102.58c18.087 44.03 30.446 69.292 30.446 69.292s12.362-25.263 30.444-69.292h102.584l47.166 120.537H69.81l47.16-120.537z"/></svg>